<?xml version="1.0" encoding="UTF-8" standalone="no"?>
<svg width="311px" height="287px" viewBox="0 0 311 287" version="1.1" xmlns="http://www.w3.org/2000/svg" xmlns:xlink="http://www.w3.org/1999/xlink">
    <!-- Generator: Sketch 41.2 (35397) - http://www.bohemiancoding.com/sketch -->
    <title>Artboard</title>
    <desc>Created with Sketch.</desc>
    <defs>
        <polygon id="path-1" points="0 230.243824 208.198473 230.243824 208.198473 0.246998229 0 0.246998229"></polygon>
    </defs>
    <g id="Page-1" stroke="none" stroke-width="1" fill="none" fill-rule="evenodd">
        <g id="Artboard">
            <g id="Page-1-Copy" transform="translate(65.247679, 49.000000)">
                <polygon id="Fill-1" fill="#A0D9DE" points="1.8189894e-12 211.23675 161.934692 211.23675 161.934692 0.555112585 1.8189894e-12 0.555112585"></polygon>
                <polygon id="Fill-2" fill="#FFFFFF" points="17.8501662 34.3504059 105.382432 34.3504059 105.382432 25.7935648 17.8501662 25.7935648"></polygon>
                <g id="Group-31" transform="translate(0.000000, 0.308114)">
                    <path d="M50.9107822,115.40178 C45.8077886,115.40178 41.6580259,119.544178 41.6580259,124.633018 C41.6580259,129.724144 45.8077886,133.864256 50.9107822,133.864256 C56.0137758,133.864256 60.1635384,129.724144 60.1635384,124.633018 C60.1635384,119.544178 56.0137758,115.40178 50.9107822,115.40178 Z M50.9107822,143.008623 C40.7529148,143.008623 32.4923437,134.767263 32.4923437,124.633018 C32.4923437,114.498774 40.7529148,106.257413 50.9107822,106.257413 C61.0686496,106.257413 69.3292207,114.498774 69.3292207,124.633018 C69.3292207,134.767263 61.0686496,143.008623 50.9107822,143.008623 Z" id="Fill-3" fill="#FFFFFF"></path>
                    <path d="M69.3294499,124.633247 L60.1637676,124.633247 C60.1637676,119.542121 56.0117135,115.402008 50.9110113,115.402008 L50.9110113,106.257642 C61.0688787,106.257642 69.3294499,114.499002 69.3294499,124.633247" id="Fill-5" fill="#FFFFFF"></path>
                    <mask id="mask-2" fill="white">
                        <use xlink:href="#path-1"></use>
                    </mask>
                    <g id="Clip-8"></g>
                    <polygon id="Fill-7" fill="#FFFFFF" mask="url(#mask-2)" points="26.5965185 190.150348 35.7622008 190.150348 35.7622008 170.880881 26.5965185 170.880881"></polygon>
                    <polygon id="Fill-9" fill="#FFFFFF" mask="url(#mask-2)" points="64.0337478 190.150348 73.19943 190.150348 73.19943 162.644093 64.0337478 162.644093"></polygon>
                    <polygon id="Fill-10" fill="#FFFFFF" mask="url(#mask-2)" points="39.0755949 190.150348 48.2412772 190.150348 48.2412772 165.035345 39.0755949 165.035345"></polygon>
                    <polygon id="Fill-11" fill="#FFFFFF" mask="url(#mask-2)" points="51.5523799 190.150348 60.7180622 190.150348 60.7180622 155.067985 51.5523799 155.067985"></polygon>
                    <polygon id="Fill-12" fill="#24516D" mask="url(#mask-2)" points="28.6198429 187.274445 37.7855252 187.274445 37.7855252 168.004978 28.6198429 168.004978"></polygon>
                    <polygon id="Fill-13" fill="#24516D" mask="url(#mask-2)" points="66.0570721 187.274445 75.2227544 187.274445 75.2227544 159.770476 66.0570721 159.770476"></polygon>
                    <polygon id="Fill-14" fill="#24516D" mask="url(#mask-2)" points="41.1012107 187.274445 50.266893 187.274445 50.266893 162.161728 41.1012107 162.161728"></polygon>
                    <polygon id="Fill-15" fill="#E95D35" mask="url(#mask-2)" points="53.5802871 187.274445 62.7459694 187.274445 62.7459694 152.194368 53.5802871 152.194368"></polygon>
                    <path d="M52.9964332,140.419396 C42.8385658,140.419396 34.5779947,132.178035 34.5779947,122.043791 C34.5779947,111.909546 42.8385658,103.668186 52.9964332,103.668186 L52.9964332,112.812552 C47.8934396,112.812552 43.7436769,116.952664 43.7436769,122.043791 C43.7436769,127.132631 47.8934396,131.275029 52.9964332,131.275029 C58.0994268,131.275029 62.2491894,127.132631 62.2491894,122.043791 L71.4148717,122.043791 C71.4148717,132.178035 63.1543006,140.419396 52.9964332,140.419396" id="Fill-16" fill="#24516D" mask="url(#mask-2)"></path>
                    <path d="M71.4151009,122.043562 L62.2494186,122.043562 C62.2494186,116.952436 58.0973645,112.812324 52.9966623,112.812324 L52.9966623,103.667957 C63.1545297,103.667957 71.4151009,111.909318 71.4151009,122.043562" id="Fill-17" fill="#E95D35" mask="url(#mask-2)"></path>
                    <polygon id="Fill-18" fill="#24516D" mask="url(#mask-2)" points="19.6306 52.3676025 142.308674 52.3676025 142.308674 48.090325 19.6306 48.090325"></polygon>
                    <polygon id="Fill-19" fill="#24516D" mask="url(#mask-2)" points="19.6306 62.4652695 142.308674 62.4652695 142.308674 58.1879919 19.6306 58.1879919"></polygon>
                    <polygon id="Fill-20" fill="#24516D" mask="url(#mask-2)" points="19.6306 72.5629364 142.308674 72.5629364 142.308674 68.2856589 19.6306 68.2856589"></polygon>
                    <polygon id="Fill-21" fill="#24516D" mask="url(#mask-2)" points="19.6306 82.6606034 142.308674 82.6606034 142.308674 78.3810398 19.6306 78.3810398"></polygon>
                    <polygon id="Fill-22" fill="#24516D" mask="url(#mask-2)" points="19.6306 92.7582704 142.308674 92.7582704 142.308674 88.4787067 19.6306 88.4787067"></polygon>
                    <polygon id="Fill-23" fill="#24516D" mask="url(#mask-2)" points="19.6306 31.9710925 107.162866 31.9710925 107.162866 23.4119653 19.6306 23.4119653"></polygon>
                    <path d="M207.248908,217.579333 L174.094344,173.917268 L165.920847,180.096574 L173.095285,174.673965 L169.577954,170.042343 L168.37725,170.949921 L162.518087,163.232076 C169.128836,156.012598 173.161736,146.404155 173.161736,135.856128 C173.161736,113.429569 154.942651,95.2528536 132.466106,95.2528536 C109.989562,95.2528536 91.7704772,113.429569 91.7704772,135.856128 C91.7704772,158.280401 109.989562,176.457116 132.466106,176.457116 C138.962284,176.457116 145.098708,174.932293 150.545415,172.230133 L156.429783,179.979984 L159.195527,177.890496 L155.229078,180.885276 L158.746409,185.519184 L157.745058,186.27588 L190.899622,229.935659 C191.724534,231.023839 196.053027,229.137813 200.569417,225.724678 C205.083516,222.311543 208.07382,218.667513 207.248908,217.579333" id="Fill-24" fill="#FFFFFF" mask="url(#mask-2)"></path>
                    <g id="Group-30" mask="url(#mask-2)">
                        <g transform="translate(92.308259, 90.792232)">
                            <path d="M40.9706148,0.639191235 C18.4940705,0.639191235 0.272694112,18.8181923 0.272694112,41.2424656 C0.272694112,63.6667389 18.4940705,81.8434539 40.9706148,81.8434539 C47.4667921,81.8434539 53.6032164,80.3186308 59.0499231,77.6187565 C63.5846444,75.3692423 67.6427502,72.3104516 71.0203042,68.6184135 C77.6333439,61.398936 81.6685355,51.7927787 81.6685355,41.2424656 C81.6685355,18.8181923 63.4471592,0.639191235 40.9706148,0.639191235" id="Fill-25" fill="#E95D35"></path>
                            <path d="M77.3895368,41.2417798 C77.3895368,21.1767531 61.083788,4.90663858 40.9696983,4.90663858 C20.8556085,4.90663858 4.55215117,21.1767531 4.55215117,41.2417798 C4.55215117,61.3090926 20.8556085,77.576921 40.9696983,77.576921 C61.083788,77.576921 77.3895368,61.3090926 77.3895368,41.2417798" id="Fill-26" fill="#FFFFFF"></path>
                            <polygon id="Fill-27" fill="#FAC6BE" points="81.5986472 80.0607596 67.2497716 90.9059786 63.732441 86.2743568 78.0813166 75.431424"></polygon>
                            <path d="M59.0492357,77.6182993 L64.9336037,85.3681501 L76.8810705,76.3358018 L71.0219081,68.6179563 C67.6420628,72.3099944 63.583957,75.3710711 59.0492357,77.6182993" id="Fill-28" fill="#F48369"></path>
                            <path d="M66.2500248,91.6631321 L99.404589,135.325197 C100.227209,136.408805 104.557994,134.525065 109.072092,131.114216 C113.586191,127.701081 116.578786,124.052479 115.753875,122.966586 L82.601602,79.3068066 L66.2500248,91.6631321 Z" id="Fill-29" fill="#E95D35"></path>
                        </g>
                    </g>
                </g>
            </g>
        </g>
    </g>
</svg>